<mxfile host="app.diagrams.net" agent="Mozilla/5.0 (Macintosh; Intel Mac OS X 10_15_7) AppleWebKit/537.36 (KHTML, like Gecko) Chrome/132.0.0.0 Safari/537.36" version="26.0.5">
  <diagram name="Page-1" id="ZX72CxPNihqaZrLFioal">
    <mxGraphModel dx="1306" dy="825" grid="1" gridSize="10" guides="1" tooltips="1" connect="1" arrows="1" fold="1" page="1" pageScale="1" pageWidth="1169" pageHeight="827" math="0" shadow="0">
      <root>
        <mxCell id="0" />
        <mxCell id="1" parent="0" />
        <mxCell id="Kt5064PdepQr5R5rHAA1-1" value="" style="html=1;verticalLabelPosition=bottom;align=center;labelBackgroundColor=#ffffff;verticalAlign=top;strokeWidth=2;strokeColor=#0080F0;shadow=0;dashed=0;shape=mxgraph.ios7.icons.smartphone;" vertex="1" parent="1">
          <mxGeometry x="80" y="399" width="20" height="30" as="geometry" />
        </mxCell>
        <mxCell id="Kt5064PdepQr5R5rHAA1-2" value="&lt;h1 style=&quot;margin-top: 0px;&quot;&gt;Features&lt;/h1&gt;&lt;p style=&quot;line-height: 60%;&quot;&gt;Tweet&lt;/p&gt;&lt;p style=&quot;line-height: 60%;&quot;&gt;Retweet&lt;/p&gt;&lt;p style=&quot;line-height: 60%;&quot;&gt;Timeline&lt;/p&gt;&lt;p style=&quot;line-height: 60%;&quot;&gt;Trending&lt;/p&gt;" style="text;html=1;whiteSpace=wrap;overflow=hidden;rounded=0;" vertex="1" parent="1">
          <mxGeometry x="1000" y="80" width="120" height="130" as="geometry" />
        </mxCell>
        <mxCell id="Kt5064PdepQr5R5rHAA1-3" value="&lt;h1 style=&quot;margin-top: 0px;&quot;&gt;Design&lt;/h1&gt;&lt;p style=&quot;line-height: 60%;&quot;&gt;Scalable&lt;/p&gt;&lt;p style=&quot;line-height: 60%;&quot;&gt;Highly Available&lt;/p&gt;&lt;p style=&quot;line-height: 60%;&quot;&gt;Secure&lt;/p&gt;" style="text;html=1;whiteSpace=wrap;overflow=hidden;rounded=0;" vertex="1" parent="1">
          <mxGeometry x="1000" y="240" width="120" height="110" as="geometry" />
        </mxCell>
        <mxCell id="Kt5064PdepQr5R5rHAA1-15" value="" style="edgeStyle=orthogonalEdgeStyle;rounded=0;orthogonalLoop=1;jettySize=auto;html=1;" edge="1" parent="1" source="Kt5064PdepQr5R5rHAA1-4" target="Kt5064PdepQr5R5rHAA1-14">
          <mxGeometry relative="1" as="geometry" />
        </mxCell>
        <mxCell id="Kt5064PdepQr5R5rHAA1-4" value="API Gateway" style="sketch=0;points=[[0,0,0],[0.25,0,0],[0.5,0,0],[0.75,0,0],[1,0,0],[0,1,0],[0.25,1,0],[0.5,1,0],[0.75,1,0],[1,1,0],[0,0.25,0],[0,0.5,0],[0,0.75,0],[1,0.25,0],[1,0.5,0],[1,0.75,0]];outlineConnect=0;fontColor=#232F3E;fillColor=#E7157B;strokeColor=#ffffff;dashed=0;verticalLabelPosition=bottom;verticalAlign=top;align=center;html=1;fontSize=12;fontStyle=0;aspect=fixed;shape=mxgraph.aws4.resourceIcon;resIcon=mxgraph.aws4.api_gateway;" vertex="1" parent="1">
          <mxGeometry x="170" y="389" width="50" height="50" as="geometry" />
        </mxCell>
        <mxCell id="Kt5064PdepQr5R5rHAA1-5" style="edgeStyle=orthogonalEdgeStyle;rounded=0;orthogonalLoop=1;jettySize=auto;html=1;entryX=0;entryY=0.5;entryDx=0;entryDy=0;entryPerimeter=0;" edge="1" parent="1" source="Kt5064PdepQr5R5rHAA1-1" target="Kt5064PdepQr5R5rHAA1-4">
          <mxGeometry relative="1" as="geometry" />
        </mxCell>
        <mxCell id="Kt5064PdepQr5R5rHAA1-10" value="Tweet" style="edgeLabel;html=1;align=center;verticalAlign=middle;resizable=0;points=[];" vertex="1" connectable="0" parent="Kt5064PdepQr5R5rHAA1-5">
          <mxGeometry x="-0.2286" relative="1" as="geometry">
            <mxPoint as="offset" />
          </mxGeometry>
        </mxCell>
        <mxCell id="Kt5064PdepQr5R5rHAA1-28" value="" style="edgeStyle=orthogonalEdgeStyle;rounded=0;orthogonalLoop=1;jettySize=auto;html=1;" edge="1" parent="1" source="Kt5064PdepQr5R5rHAA1-14">
          <mxGeometry relative="1" as="geometry">
            <mxPoint x="390" y="414" as="targetPoint" />
          </mxGeometry>
        </mxCell>
        <mxCell id="Kt5064PdepQr5R5rHAA1-14" value="Tweet Queue" style="sketch=0;points=[[0,0,0],[0.25,0,0],[0.5,0,0],[0.75,0,0],[1,0,0],[0,1,0],[0.25,1,0],[0.5,1,0],[0.75,1,0],[1,1,0],[0,0.25,0],[0,0.5,0],[0,0.75,0],[1,0.25,0],[1,0.5,0],[1,0.75,0]];outlineConnect=0;fontColor=#232F3E;fillColor=#E7157B;strokeColor=#ffffff;dashed=0;verticalLabelPosition=bottom;verticalAlign=top;align=center;html=1;fontSize=12;fontStyle=0;aspect=fixed;shape=mxgraph.aws4.resourceIcon;resIcon=mxgraph.aws4.sqs;" vertex="1" parent="1">
          <mxGeometry x="280" y="389" width="50" height="50" as="geometry" />
        </mxCell>
        <mxCell id="Kt5064PdepQr5R5rHAA1-32" style="edgeStyle=orthogonalEdgeStyle;rounded=0;orthogonalLoop=1;jettySize=auto;html=1;" edge="1" parent="1">
          <mxGeometry relative="1" as="geometry">
            <mxPoint x="500" y="414" as="targetPoint" />
            <mxPoint x="440" y="414" as="sourcePoint" />
          </mxGeometry>
        </mxCell>
        <mxCell id="Kt5064PdepQr5R5rHAA1-17" value="Redis DB" style="sketch=0;points=[[0,0,0],[0.25,0,0],[0.5,0,0],[0.75,0,0],[1,0,0],[0,1,0],[0.25,1,0],[0.5,1,0],[0.75,1,0],[1,1,0],[0,0.25,0],[0,0.5,0],[0,0.75,0],[1,0.25,0],[1,0.5,0],[1,0.75,0]];outlineConnect=0;fontColor=#232F3E;fillColor=#C925D1;strokeColor=#ffffff;dashed=0;verticalLabelPosition=bottom;verticalAlign=top;align=center;html=1;fontSize=12;fontStyle=0;aspect=fixed;shape=mxgraph.aws4.resourceIcon;resIcon=mxgraph.aws4.memorydb_for_redis;" vertex="1" parent="1">
          <mxGeometry x="500" y="389" width="50" height="50" as="geometry" />
        </mxCell>
        <mxCell id="Kt5064PdepQr5R5rHAA1-33" value="Autoscale EC2" style="sketch=0;points=[[0,0,0],[0.25,0,0],[0.5,0,0],[0.75,0,0],[1,0,0],[0,1,0],[0.25,1,0],[0.5,1,0],[0.75,1,0],[1,1,0],[0,0.25,0],[0,0.5,0],[0,0.75,0],[1,0.25,0],[1,0.5,0],[1,0.75,0]];outlineConnect=0;fontColor=#232F3E;fillColor=#ED7100;strokeColor=#ffffff;dashed=0;verticalLabelPosition=bottom;verticalAlign=top;align=center;html=1;fontSize=12;fontStyle=0;aspect=fixed;shape=mxgraph.aws4.resourceIcon;resIcon=mxgraph.aws4.auto_scaling2;" vertex="1" parent="1">
          <mxGeometry x="390" y="389" width="50" height="50" as="geometry" />
        </mxCell>
        <mxCell id="Kt5064PdepQr5R5rHAA1-39" value="" style="edgeStyle=orthogonalEdgeStyle;rounded=0;orthogonalLoop=1;jettySize=auto;html=1;" edge="1" parent="1" source="Kt5064PdepQr5R5rHAA1-34" target="Kt5064PdepQr5R5rHAA1-38">
          <mxGeometry relative="1" as="geometry" />
        </mxCell>
        <mxCell id="Kt5064PdepQr5R5rHAA1-49" value="Followed By" style="edgeLabel;html=1;align=center;verticalAlign=middle;resizable=0;points=[];" vertex="1" connectable="0" parent="Kt5064PdepQr5R5rHAA1-39">
          <mxGeometry x="-0.4" relative="1" as="geometry">
            <mxPoint as="offset" />
          </mxGeometry>
        </mxCell>
        <mxCell id="Kt5064PdepQr5R5rHAA1-34" value="" style="points=[];aspect=fixed;html=1;align=center;shadow=0;dashed=0;fillColor=#FF6A00;strokeColor=none;shape=mxgraph.alibaba_cloud.user;" vertex="1" parent="1">
          <mxGeometry x="310" y="40" width="40" height="40" as="geometry" />
        </mxCell>
        <mxCell id="Kt5064PdepQr5R5rHAA1-35" value="" style="points=[];aspect=fixed;html=1;align=center;shadow=0;dashed=0;fillColor=#FF6A00;strokeColor=none;shape=mxgraph.alibaba_cloud.user;" vertex="1" parent="1">
          <mxGeometry x="400" y="120" width="40" height="40" as="geometry" />
        </mxCell>
        <mxCell id="Kt5064PdepQr5R5rHAA1-36" value="" style="points=[];aspect=fixed;html=1;align=center;shadow=0;dashed=0;fillColor=#FF6A00;strokeColor=none;shape=mxgraph.alibaba_cloud.user;" vertex="1" parent="1">
          <mxGeometry x="220" y="200" width="40" height="40" as="geometry" />
        </mxCell>
        <mxCell id="Kt5064PdepQr5R5rHAA1-42" value="" style="edgeStyle=orthogonalEdgeStyle;rounded=0;orthogonalLoop=1;jettySize=auto;html=1;" edge="1" parent="1" source="Kt5064PdepQr5R5rHAA1-37" target="Kt5064PdepQr5R5rHAA1-36">
          <mxGeometry relative="1" as="geometry" />
        </mxCell>
        <mxCell id="Kt5064PdepQr5R5rHAA1-51" value="Followed By" style="edgeLabel;html=1;align=center;verticalAlign=middle;resizable=0;points=[];" vertex="1" connectable="0" parent="Kt5064PdepQr5R5rHAA1-42">
          <mxGeometry x="-0.15" relative="1" as="geometry">
            <mxPoint as="offset" />
          </mxGeometry>
        </mxCell>
        <mxCell id="Kt5064PdepQr5R5rHAA1-37" value="" style="points=[];aspect=fixed;html=1;align=center;shadow=0;dashed=0;fillColor=#FF6A00;strokeColor=none;shape=mxgraph.alibaba_cloud.user;" vertex="1" parent="1">
          <mxGeometry x="220" y="120" width="40" height="40" as="geometry" />
        </mxCell>
        <mxCell id="Kt5064PdepQr5R5rHAA1-38" value="" style="points=[];aspect=fixed;html=1;align=center;shadow=0;dashed=0;fillColor=#FF6A00;strokeColor=none;shape=mxgraph.alibaba_cloud.user;" vertex="1" parent="1">
          <mxGeometry x="310" y="120" width="40" height="40" as="geometry" />
        </mxCell>
        <mxCell id="Kt5064PdepQr5R5rHAA1-40" style="edgeStyle=orthogonalEdgeStyle;rounded=0;orthogonalLoop=1;jettySize=auto;html=1;" edge="1" parent="1" source="Kt5064PdepQr5R5rHAA1-34">
          <mxGeometry relative="1" as="geometry">
            <mxPoint x="239" y="120" as="targetPoint" />
          </mxGeometry>
        </mxCell>
        <mxCell id="Kt5064PdepQr5R5rHAA1-52" value="Followed By" style="edgeLabel;html=1;align=center;verticalAlign=middle;resizable=0;points=[];" vertex="1" connectable="0" parent="Kt5064PdepQr5R5rHAA1-40">
          <mxGeometry x="0.3409" y="1" relative="1" as="geometry">
            <mxPoint y="13" as="offset" />
          </mxGeometry>
        </mxCell>
        <mxCell id="Kt5064PdepQr5R5rHAA1-41" style="edgeStyle=orthogonalEdgeStyle;rounded=0;orthogonalLoop=1;jettySize=auto;html=1;entryX=0.475;entryY=-0.025;entryDx=0;entryDy=0;entryPerimeter=0;" edge="1" parent="1" source="Kt5064PdepQr5R5rHAA1-34" target="Kt5064PdepQr5R5rHAA1-35">
          <mxGeometry relative="1" as="geometry" />
        </mxCell>
        <mxCell id="Kt5064PdepQr5R5rHAA1-50" value="Followed By" style="edgeLabel;html=1;align=center;verticalAlign=middle;resizable=0;points=[];" vertex="1" connectable="0" parent="Kt5064PdepQr5R5rHAA1-41">
          <mxGeometry x="0.4375" relative="1" as="geometry">
            <mxPoint x="1" y="7" as="offset" />
          </mxGeometry>
        </mxCell>
        <mxCell id="Kt5064PdepQr5R5rHAA1-43" value="Sam" style="text;html=1;align=center;verticalAlign=middle;resizable=0;points=[];autosize=1;strokeColor=none;fillColor=none;" vertex="1" parent="1">
          <mxGeometry x="305" y="10" width="50" height="30" as="geometry" />
        </mxCell>
        <mxCell id="Kt5064PdepQr5R5rHAA1-44" value="Mike" style="text;html=1;align=center;verticalAlign=middle;resizable=0;points=[];autosize=1;strokeColor=none;fillColor=none;" vertex="1" parent="1">
          <mxGeometry x="395" y="160" width="50" height="30" as="geometry" />
        </mxCell>
        <mxCell id="Kt5064PdepQr5R5rHAA1-45" value="Xavier" style="text;html=1;align=center;verticalAlign=middle;resizable=0;points=[];autosize=1;strokeColor=none;fillColor=none;" vertex="1" parent="1">
          <mxGeometry x="300" y="160" width="60" height="30" as="geometry" />
        </mxCell>
        <mxCell id="Kt5064PdepQr5R5rHAA1-46" value="Tyler" style="text;html=1;align=center;verticalAlign=middle;resizable=0;points=[];autosize=1;strokeColor=none;fillColor=none;" vertex="1" parent="1">
          <mxGeometry x="180" y="125" width="50" height="30" as="geometry" />
        </mxCell>
        <mxCell id="Kt5064PdepQr5R5rHAA1-47" value="Wes" style="text;html=1;align=center;verticalAlign=middle;resizable=0;points=[];autosize=1;strokeColor=none;fillColor=none;" vertex="1" parent="1">
          <mxGeometry x="215" y="240" width="50" height="30" as="geometry" />
        </mxCell>
      </root>
    </mxGraphModel>
  </diagram>
</mxfile>
